<svg width="167" height="46" viewBox="0 0 167 46" fill="none" xmlns="http://www.w3.org/2000/svg">
<path d="M54.0908 35.0024L43.8818 24.8284L42.1868 26.5244V30.2104H37.8418V10.8984H42.1868V20.3774L51.6778 10.8984L54.7508 13.9714L46.9438 21.7554L57.1648 31.9294L54.0908 35.0024Z" fill="#002E6E"/>
<path d="M70.9182 20.5534C70.9182 19.0934 70.3962 17.8454 69.3522 16.8094C68.3162 15.7654 67.0672 15.2434 65.6082 15.2434C64.1322 15.2434 62.8762 15.7624 61.8402 16.7984C60.8122 17.8264 60.2982 19.0794 60.2982 20.5554C60.2982 22.0394 60.8122 23.2944 61.8402 24.3234C62.8682 25.3514 64.1252 25.8664 65.6082 25.8664C67.0842 25.8664 68.3362 25.3524 69.3652 24.3234C70.4002 23.2844 70.9182 22.0284 70.9182 20.5534ZM75.2632 20.5534C75.2632 23.2304 74.3212 25.5114 72.4372 27.3954C70.5382 29.2714 68.2612 30.2104 65.6082 30.2104C62.9232 30.2104 60.6432 29.2714 58.7662 27.3954C56.8902 25.5194 55.9512 23.2384 55.9512 20.5534C55.9512 17.9004 56.8902 15.6234 58.7662 13.7244C60.6502 11.8404 62.9302 10.8984 65.6082 10.8984C68.2452 10.8984 70.5152 11.8484 72.4142 13.7484C74.3132 15.6464 75.2632 17.9144 75.2632 20.5534Z" fill="#002E6E"/>
<path d="M89.0178 30.2094L80.8098 18.8344V30.2094H76.4648V10.8984H80.8098L89.0178 22.2614V10.8984H93.375V30.2094H89.0178Z" fill="#002E6E"/>
<path d="M100.12 15.2434V18.3764H107.845V22.7214H100.12V30.2104H95.7754V10.8984H110.259V15.2434H100.12Z" fill="#002E6E"/>
<path d="M124.272 30.2094V22.7204H116.066V30.2094H111.721V10.8984H116.066V18.3764H124.272V10.8984H128.629V30.2094H124.272Z" fill="#002E6E"/>
<path d="M147.328 21.7544C147.328 24.1094 146.508 26.1074 144.867 27.7484C143.226 29.3894 141.232 30.2094 138.885 30.2094C136.53 30.2094 134.532 29.3894 132.891 27.7484C131.25 26.1074 130.43 24.1094 130.43 21.7544V10.8984H134.775V21.7544C134.775 22.8924 135.175 23.8624 135.976 24.6634C136.777 25.4644 137.747 25.8644 138.885 25.8644C140.023 25.8644 140.99 25.4644 141.782 24.6634C142.583 23.8624 142.983 22.8924 142.983 21.7544V10.8984H147.328V21.7544Z" fill="#002E6E"/>
<path d="M161.671 24.2984C161.671 23.8664 161.514 23.4974 161.2 23.1914C160.894 22.8774 160.528 22.7204 160.105 22.7204H153.488V25.8644H160.105C160.537 25.8644 160.906 25.7114 161.212 25.4054C161.519 25.0984 161.671 24.7294 161.671 24.2984ZM161.188 16.8084C161.188 16.4004 161.039 16.0354 160.74 15.7134C160.45 15.3994 160.089 15.2424 159.656 15.2424H153.487V18.3754H159.621C160.053 18.3754 160.422 18.2224 160.728 17.9164C161.035 17.6104 161.188 17.2414 161.188 16.8084ZM166.052 24.8284C166.052 26.3434 165.436 27.6304 164.204 28.6904C163.026 29.7034 161.669 30.2094 160.129 30.2094H149.143V10.8984H159.622C161.137 10.8984 162.491 11.3924 163.685 12.3824C164.95 13.4184 165.581 14.6784 165.581 16.1624C165.581 17.8734 164.874 19.2394 163.461 20.2604C165.189 21.3034 166.052 22.8264 166.052 24.8284Z" fill="#002E6E"/>
<path d="M3.081 30.083C-1.027 25.975 -1.027 19.315 3.081 15.206L18.289 0L20.438 2.149C19.343 3.244 19.343 5.021 20.438 6.116C21.533 7.211 23.31 7.211 24.405 6.116L26.554 8.265L13.036 21.78L5.37 15.842L12.171 22.643L3.907 30.907L3.081 30.083Z" fill="#002E6E"/>
<path d="M12.173 39.1758L3.08299 30.0858C-1.02506 25.9778 -1.02506 19.3178 3.08299 15.2088L3.90899 14.3828L20.452 30.9258C20.417 30.9418 20.384 30.9648 20.355 30.9938L19.947 31.4038C19.81 31.5408 19.81 31.7628 19.947 31.8988C20.084 32.0358 20.306 32.0358 20.442 31.8988L20.852 31.4888C20.881 31.4598 20.904 31.4278 20.92 31.3918L26.554 37.0258L24.405 39.1748C23.31 38.0798 21.533 38.0798 20.438 39.1748C19.343 40.2698 19.343 42.0468 20.438 43.1418L18.289 45.2898L12.669 39.6698L13.077 39.2618C13.214 39.1248 13.214 38.9028 13.077 38.7668C12.94 38.6298 12.718 38.6298 12.582 38.7668L12.173 39.1758ZM13.4 37.9478C13.263 38.0848 13.263 38.3068 13.4 38.4428C13.537 38.5798 13.759 38.5798 13.895 38.4428L14.713 37.6248C14.85 37.4878 14.85 37.2658 14.713 37.1298C14.576 36.9928 14.354 36.9928 14.218 37.1298L13.4 37.9478ZM15.036 36.3118C14.899 36.4488 14.899 36.6708 15.036 36.8068C15.173 36.9438 15.395 36.9438 15.531 36.8068L16.349 35.9888C16.486 35.8518 16.486 35.6298 16.349 35.4938C16.212 35.3568 15.99 35.3568 15.854 35.4938L15.036 36.3118ZM16.672 34.6758C16.535 34.8128 16.535 35.0348 16.672 35.1708C16.809 35.3078 17.031 35.3078 17.167 35.1708L17.985 34.3528C18.122 34.2158 18.122 33.9938 17.985 33.8578C17.848 33.7208 17.626 33.7208 17.49 33.8578L16.672 34.6758ZM18.309 33.0388C18.172 33.1758 18.172 33.3978 18.309 33.5338C18.446 33.6708 18.668 33.6708 18.804 33.5338L19.622 32.7158C19.759 32.5788 19.759 32.3568 19.622 32.2208C19.485 32.0838 19.263 32.0838 19.127 32.2208L18.309 33.0388Z" fill="#002E6E"/>
</svg>
