<svg width="921" height="409" viewBox="0 0 921 409" fill="none" xmlns="http://www.w3.org/2000/svg">
<mask id="mask0_379_917" style="mask-type:luminance" maskUnits="userSpaceOnUse" x="0" y="0" width="921" height="409">
<path d="M920.091 0H0V409H920.091V0Z" fill="white"/>
</mask>
<g mask="url(#mask0_379_917)">
<path d="M886.835 0L819.076 69.617L760.925 9.875L799.409 36.366L834.805 0H886.835Z" fill="#55A954"/>
<path d="M882.859 148H829.941L790.81 107.805L862.684 33.9531L822.868 86.3621L882.859 148Z" fill="#FF931F"/>
<path d="M812.835 76.025L742.792 148H690.762L760.24 76.386L686 0H738.816L812.835 76.025Z" fill="#EA4335"/>
<path d="M812.835 76.0254L742.792 148H690.762L760.241 76.3864L812.835 76.0254Z" fill="#4285F4"/>
<path d="M14.8609 9.90039H153.242C157.681 9.90039 161.155 12.4094 161.155 16.8484V28.8144C161.155 34.7974 158.646 37.4994 153.242 37.4994L100.939 37.3064V136.894C100.939 141.333 97.2719 145 92.8329 145H75.2699C70.8309 145 67.1639 141.333 67.1639 136.894V37.3064L14.8609 37.4994C10.4219 37.4994 6.75488 33.8324 6.75488 29.3934V18.0064C6.75488 13.5674 10.4219 9.90039 14.8609 9.90039ZM184.531 9.90039H309.595C314.034 9.90039 317.701 13.5674 317.701 18.0064V29.3934C317.701 33.8324 314.034 37.3064 309.595 37.3064H184.531C180.092 37.3064 176.425 33.8324 176.425 29.3934V18.0064C176.425 13.5674 180.092 9.90039 184.531 9.90039ZM208.849 117.787H309.595C314.034 117.787 317.701 121.261 317.701 125.7V136.894C317.701 141.333 314.034 145 309.595 145H184.531C180.092 145 176.425 141.333 176.425 136.894V70.8884C176.425 66.4494 180.092 60.8524 184.531 60.8524H291.646C296.085 60.8524 299.752 65.2914 299.752 69.7304V77.2574C299.752 81.6964 296.085 85.1704 291.646 85.1704H208.849V117.787ZM499.018 99.6454V107.558C499.018 132.648 474.7 145 453.856 145H369.708C349.057 145 332.266 128.209 332.266 107.558V47.3424C332.266 26.6914 349.057 9.90039 369.708 9.90039H454.049C482.806 9.90039 499.018 27.0774 499.018 47.3424V52.3604C499.018 55.4484 496.895 57.5714 493.807 57.5714H470.261C467.366 57.5714 465.436 55.6414 464.664 52.3604C463.12 36.9204 453.084 34.4114 440.925 34.4114L386.306 34.6044C374.919 34.6044 366.041 41.9384 366.041 51.0094V103.698C366.041 112.962 374.919 120.489 386.306 120.489L440.925 120.296C454.821 120.296 464.085 115.471 465.05 99.4524C465.436 96.3644 467.366 94.2414 470.261 94.2414L493.807 94.4344C496.895 94.4344 499.018 96.5574 499.018 99.6454ZM650.455 9.90039H668.211C672.65 9.90039 676.317 13.5674 676.317 18.0064V136.894C676.317 141.333 672.65 145 668.211 145H650.455C646.016 145 642.542 141.333 642.542 136.894V99.4524H555.692V136.894C555.692 141.333 552.218 145 547.779 145H530.023C525.584 145 521.917 141.333 521.917 136.894V18.0064C521.917 13.5674 525.584 9.90039 530.023 9.90039H547.779C552.218 9.90039 555.692 13.5674 555.692 18.0064V72.2394H642.542V18.0064C642.542 13.5674 646.016 9.90039 650.455 9.90039Z" fill="#00316B"/>
<path d="M181.42 315.645V323.558C181.42 348.648 157.102 361 136.258 361H52.11C31.459 361 14.668 344.209 14.668 323.558V263.342C14.668 242.691 31.459 225.9 52.11 225.9H136.451C165.208 225.9 181.42 243.077 181.42 263.342V268.36C181.42 271.448 179.297 273.571 176.209 273.571H152.663C149.768 273.571 147.838 271.641 147.066 268.36C145.522 252.92 135.486 250.411 123.327 250.411L68.708 250.604C57.321 250.604 48.443 257.938 48.443 267.009V319.698C48.443 328.962 57.321 336.489 68.708 336.489L123.327 336.296C137.223 336.296 146.487 331.471 147.452 315.452C147.838 312.364 149.768 310.241 152.663 310.241L176.209 310.434C179.297 310.434 181.42 312.557 181.42 315.645ZM286.537 225.9H378.212C399.056 225.9 415.847 242.691 415.847 263.342V323.558C415.847 344.209 399.056 361 378.212 361H286.537C265.886 361 249.095 344.209 249.095 323.558V263.342C249.095 242.691 265.886 225.9 286.537 225.9ZM381.879 318.347V268.553C381.879 258.517 371.457 250.218 359.298 250.218L300.819 250.604C290.783 250.604 282.87 258.517 282.87 268.553V318.54C282.87 328.383 290.783 336.682 300.819 336.682L359.298 336.296C371.457 336.296 381.879 328.383 381.879 318.347ZM631.939 225.9H649.695C654.134 225.9 657.608 229.567 657.608 234.006V352.894C657.608 357.333 654.134 361 649.695 361H617.464C612.253 361 608.972 356.947 605.691 352.894L518.841 259.289V352.894C518.841 357.333 515.367 361 510.928 361H493.172C488.733 361 485.066 357.333 485.066 352.894V234.006C485.066 229.567 488.733 225.9 493.172 225.9H525.596C530.035 225.9 534.474 230.339 537.369 234.006L623.833 326.839V234.006C623.833 229.567 627.5 225.9 631.939 225.9ZM736.646 225.9H861.71C866.149 225.9 869.816 229.567 869.816 234.006V245.393C869.816 249.832 866.149 253.306 861.71 253.306H736.646C732.207 253.306 728.54 249.832 728.54 245.393V234.006C728.54 229.567 732.207 225.9 736.646 225.9ZM736.646 278.975H843.761C848.2 278.975 851.867 282.449 851.867 286.888V295.187C851.867 299.626 848.2 303.293 843.761 303.293H762.315V352.894C762.315 357.333 758.841 361 754.402 361H736.646C732.207 361 728.54 357.333 728.54 352.894V286.888C728.54 282.449 732.207 278.975 736.646 278.975Z" fill="#00316B"/>
<path d="M347.965 273H318C313.582 273 310 276.582 310 281V305.858C310 310.276 313.582 313.858 318 313.858H347.965C352.383 313.858 355.965 310.276 355.965 305.858V281C355.965 276.582 352.383 273 347.965 273Z" fill="#FF931F"/>
</g>
</svg>
